<svg width="76" height="87" viewBox="0 0 76 87" fill="none" xmlns="http://www.w3.org/2000/svg">
    <mask id="3hryh3b4oa" style="mask-type:luminance" maskUnits="userSpaceOnUse" x="0" y="10" width="76" height="77">
        <path d="M76 48.28c0 20.986-17.014 38-38 38s-38-17.014-38-38 17.014-38 38-38 38 17.014 38 38z" fill="#fff"/>
    </mask>
    <g mask="url(#3hryh3b4oa)">
        <path d="M4.444 8.005-29.962 27.87a2.354 2.354 0 0 0-.862 3.215l18.163 31.458a2.354 2.354 0 0 0 3.215.861L24.959 43.54a2.354 2.354 0 0 0 .862-3.215L7.659 8.867a2.354 2.354 0 0 0-3.215-.862zM26.831 46.777-7.575 66.642a2.354 2.354 0 0 0-.861 3.215l27.352 47.374a2.353 2.353 0 0 0 3.215.862l34.406-19.864a2.354 2.354 0 0 0 .861-3.215L30.046 47.639a2.354 2.354 0 0 0-3.215-.862zM49.57-9.823 15.166 10.04a2.354 2.354 0 0 0-.862 3.215l25.824 44.728a2.354 2.354 0 0 0 3.215.861l34.406-19.864a2.353 2.353 0 0 0 .861-3.215L52.786-8.962a2.354 2.354 0 0 0-3.215-.861zM79.522 42.053 45.116 61.917a2.354 2.354 0 0 0-.862 3.215L55.37 84.386a2.354 2.354 0 0 0 3.215.861l34.406-19.864a2.354 2.354 0 0 0 .862-3.215L82.737 42.915a2.354 2.354 0 0 0-3.215-.862z" fill="#EFEFEF"/>
        <path d="m50.36 49.531 24.34-14.46 8.074-11.592-10.844-9.227-7.232-.997L50.36 49.531z" fill="#E0E0E0"/>
    </g>
    <path d="M63.533 5.317H37.187v24.83h26.346V5.318z" fill="#fff"/>
    <path d="M50.115 0C39.557 0 31.61 8.56 31.61 19.119c0 12.241 12.421 24.847 16.781 29.48 1.263 1.344 2.207 1.377 3.465.017 4.29-4.65 16.765-16.97 16.765-29.497C68.621 8.56 60.674 0 50.115 0zm0 27.626c-5.642 0-10.219-4.577-10.219-10.22 0-5.642 4.577-10.219 10.22-10.219 5.642 0 10.219 4.577 10.219 10.22 0 5.642-4.577 10.219-10.22 10.219z" fill="#E26868"/>
</svg>
